<svg xmlns="http://www.w3.org/2000/svg" viewBox="0 0 200 200">
  <path d="M100,40 C132,40 150,64 150,94 C150,112 144,120 140,128 L140,144 C140,152 132,152 132,144 L132,132 L122,132 L122,146 C122,154 112,154 112,146 L112,132 L100,132 L88,132 L88,146 C88,154 78,154 78,146 L78,132 L68,132 L68,144 C68,152 60,152 60,144 L60,128 C56,120 50,112 50,94 C50,64 68,40 100,40 Z" fill="#fbf3e7" stroke="#241c2b" stroke-width="2.5"/>
  <ellipse cx="80" cy="94" rx="12" ry="15" fill="#241c2b"/>
  <ellipse cx="120" cy="94" rx="12" ry="15" fill="#241c2b"/>
  <path d="M100,104 L94,118 L106,118 Z" fill="#241c2b"/>
  <line x1="82" y1="132" x2="82" y2="145" stroke="#241c2b" stroke-width="2"/>
  <line x1="94" y1="132" x2="94" y2="145" stroke="#241c2b" stroke-width="2"/>
  <line x1="106" y1="132" x2="106" y2="145" stroke="#241c2b" stroke-width="2"/>
  <line x1="118" y1="132" x2="118" y2="145" stroke="#241c2b" stroke-width="2"/>
</svg>
